HIERARCHY
ROOT joint_0
{
	OFFSET 0.000000 0.000000 0.000000
	CHANNELS 6 Xposition Yposition Zposition Zrotation Yrotation Xrotation 
	JOINT joint_1
	{
		OFFSET 10.084412 4.114712 95.061035
		CHANNELS 3 Zrotation Yrotation Xrotation
		JOINT joint_2
		{
			OFFSET -1.615463 4.243484 87.329956
			CHANNELS 3 Zrotation Yrotation Xrotation
			JOINT joint_3
			{
				OFFSET -3.579636 4.638191 87.154053
				CHANNELS 3 Zrotation Yrotation Xrotation
				JOINT joint_4
				{
					OFFSET 5.443451 7.217075 123.562988
					CHANNELS 3 Zrotation Yrotation Xrotation
					JOINT joint_5
					{
						OFFSET 21.688065 15.141808 90.458008
						CHANNELS 3 Zrotation Yrotation Xrotation
						End Site
						{
							OFFSET 0.000000 0.000000 0.000000
						}
					}
				}
				JOINT joint_6
				{
					OFFSET 3.611374 -22.863556 70.791992
					CHANNELS 3 Zrotation Yrotation Xrotation
					JOINT joint_7
					{
						OFFSET 3.493607 -153.029137 -12.665039
						CHANNELS 3 Zrotation Yrotation Xrotation
						JOINT joint_8
						{
							OFFSET -14.929443 -32.628616 -254.032959
							CHANNELS 3 Zrotation Yrotation Xrotation
							JOINT joint_9
							{
								OFFSET 11.589401 -3.548126 -242.255005
								CHANNELS 3 Zrotation Yrotation Xrotation
								End Site
								{
									OFFSET 0.000000 0.000000 0.000000
								}
							}
						}
					}
				}
				JOINT joint_10
				{
					OFFSET 2.651962 30.943008 67.690918
					CHANNELS 3 Zrotation Yrotation Xrotation
					JOINT joint_11
					{
						OFFSET -6.172562 150.392159 -30.576904
						CHANNELS 3 Zrotation Yrotation Xrotation
						JOINT joint_12
						{
							OFFSET 15.363358 20.741959 -255.254028
							CHANNELS 3 Zrotation Yrotation Xrotation
							JOINT joint_13
							{
								OFFSET 23.282578 -11.086121 -241.182983
								CHANNELS 3 Zrotation Yrotation Xrotation
								End Site
								{
									OFFSET 0.000000 0.000000 0.000000
								}
							}
						}
					}
				}
			}
		}
	}
	JOINT joint_14
	{
		OFFSET -7.080551 -92.910816 -106.291992
		CHANNELS 3 Zrotation Yrotation Xrotation
		JOINT joint_15
		{
			OFFSET -38.248322 -6.001282 -411.906006
			CHANNELS 3 Zrotation Yrotation Xrotation
			JOINT joint_16
			{
				OFFSET -11.189407 -11.244659 -448.150986
				CHANNELS 3 Zrotation Yrotation Xrotation
				JOINT joint_17
				{
					OFFSET 169.870491 -24.631378 -80.352999
					CHANNELS 3 Zrotation Yrotation Xrotation
					End Site
					{
						OFFSET 0.000000 0.000000 0.000000
					}
				}
			}
		}
	}
	JOINT joint_18
	{
		OFFSET -2.796600 85.817772 -112.273987
		CHANNELS 3 Zrotation Yrotation Xrotation
		JOINT joint_19
		{
			OFFSET -44.395859 -8.174402 -411.255005
			CHANNELS 3 Zrotation Yrotation Xrotation
			JOINT joint_20
			{
				OFFSET -25.617508 -5.555587 -447.666992
				CHANNELS 3 Zrotation Yrotation Xrotation
				JOINT joint_21
				{
					OFFSET 163.870811 53.215703 -78.867000
					CHANNELS 3 Zrotation Yrotation Xrotation
					End Site
					{
						OFFSET 0.000000 0.000000 0.000000
					}
				}
			}
		}
	}
}
MOTION
Frames: 9
Frame Time: 0.016667
-826.891785 -88.286026 1065.562988 1.371129 -2.071904 1.848565 -1.182914 -2.770332 -0.133580 -1.336006 0.363088 -0.152401 -1.278574 -0.509499 0.087991 -2.123699 2.653015 7.138166 0.000000 0.000000 0.000000 -0.682015 0.268465 6.302509 0.608544 -0.212644 -6.582174 -0.200062 4.201720 -2.628531 0.000000 0.000000 0.000000 -2.112422 1.942854 -2.700716 0.655395 2.664455 1.285820 0.291279 -2.248576 1.908606 0.000000 0.000000 0.000000 1.313975 -0.994286 -1.944793 1.018963 3.639929 0.583744 1.263924 -4.794752 -0.098790 0.000000 0.000000 0.000000 -0.584720 -0.662576 0.438513 -0.527860 0.102831 -0.237483 -0.512670 2.232854 -0.970926 0.000000 0.000000 0.000000 
-824.453308 -88.237122 1065.437988 1.262836 -1.618125 1.875468 -1.194597 -2.026323 -0.057882 -1.313526 0.343427 -0.186441 -1.259428 -0.425775 0.111366 -1.966282 1.045694 7.606339 0.000000 0.000000 0.000000 -0.709716 0.553796 5.716394 0.447245 0.136152 -6.281851 -0.130505 2.506081 -1.774854 0.000000 0.000000 0.000000 -2.152990 2.268417 -2.211391 0.815370 3.018133 1.329807 0.233542 -3.583707 0.654971 0.000000 0.000000 0.000000 1.359795 -1.236587 -2.018141 1.051629 3.418670 0.635103 1.290761 -4.821570 -0.089855 0.000000 0.000000 0.000000 -0.543206 -0.871007 0.398320 -0.494683 -0.142461 -0.192003 -0.480369 2.288304 -0.973493 0.000000 0.000000 0.000000 
-820.606506 -88.365654 1065.488037 1.115942 -0.922451 1.938639 -1.167835 -1.568095 -0.065129 -1.265081 0.350613 -0.180633 -1.212805 -0.394634 0.111526 -1.793782 -0.448810 7.943352 0.000000 0.000000 0.000000 -0.693877 0.918843 5.032907 0.280573 0.564988 -5.895104 -0.065844 0.953022 -1.007132 0.000000 0.000000 0.000000 -2.344128 2.617328 -1.603154 0.992127 3.424704 1.450431 0.182540 -4.940190 -0.632839 0.000000 0.000000 0.000000 1.437351 -1.691596 -2.172931 1.098366 3.218174 0.770931 1.330430 -4.700200 -0.053415 0.000000 0.000000 0.000000 -0.481139 -1.308345 0.398171 -0.428989 -0.300203 -0.279614 -0.422927 2.319948 -0.956274 0.000000 0.000000 0.000000 
-814.674377 -88.921158 1065.743042 0.921259 0.301577 2.064808 -1.060870 -1.970732 -0.279783 -1.175973 0.393720 -0.083648 -1.125561 -0.452171 0.046122 -1.641814 -1.268268 7.890785 0.000000 0.000000 0.000000 -0.496641 1.373210 4.442478 0.152142 1.083727 -5.414672 -0.038030 0.309519 -0.680943 0.000000 0.000000 0.000000 -2.867110 2.912294 -0.986954 1.126874 3.839531 1.711630 0.157480 -5.739742 -1.411180 0.000000 0.000000 0.000000 1.571332 -2.615403 -2.484309 1.166743 2.964928 1.080308 1.384344 -4.209323 0.043228 0.000000 0.000000 0.000000 -0.399128 -2.208966 0.511784 -0.309327 -0.446034 -0.664107 -0.329274 2.352427 -0.921913 0.000000 0.000000 0.000000 
-806.867554 -89.856506 1066.093018 0.688915 2.004513 2.235072 -0.886950 -3.014811 -0.663143 -1.050495 0.460292 0.087556 -1.002329 -0.582393 -0.071370 -1.490499 -1.695741 7.558029 0.000000 0.000000 0.000000 -0.171691 1.937126 3.826142 0.037838 1.720467 -4.743526 -0.036007 0.299401 -0.649135 0.000000 0.000000 0.000000 -3.661449 3.215950 -0.276090 1.233322 4.309783 2.015466 0.148324 -6.152613 -1.833364 0.000000 0.000000 0.000000 1.751127 -3.932843 -2.926216 1.253946 2.608467 1.536415 1.448940 -3.386075 0.192940 0.000000 0.000000 0.000000 -0.301660 -3.489021 0.723948 -0.145915 -0.653231 -1.285445 -0.206548 2.425912 -0.886864 0.000000 0.000000 0.000000 
-798.557129 -90.438187 1067.243042 0.469242 3.311391 2.432419 -0.744244 -3.806546 -0.958584 -0.943782 0.515876 0.230141 -0.895573 -0.716390 -0.154863 -1.374559 -1.927343 7.237386 0.000000 0.000000 0.000000 0.143687 2.403153 3.149089 -0.100970 2.247805 -4.439771 -0.017008 -0.381902 -0.494041 0.000000 0.000000 0.000000 -4.469693 3.491002 0.662643 1.473844 4.776206 2.452724 0.133629 -7.574446 -3.093449 0.000000 0.000000 0.000000 1.917818 -5.093971 -3.381088 1.328055 2.819101 1.948681 1.519424 -2.642136 0.333685 0.000000 0.000000 0.000000 -0.159603 -4.761885 0.832323 0.031146 -0.032810 -1.871315 -0.059765 2.355372 -0.793628 0.000000 0.000000 0.000000 
-790.719666 -90.036522 1069.753052 0.296126 3.517553 2.671903 -0.706457 -3.771183 -0.962682 -0.906612 0.598946 0.246698 -0.849802 -0.804542 -0.131465 -1.335015 -2.022668 7.154650 0.000000 0.000000 0.000000 0.439452 2.629914 2.353833 -0.302339 2.518272 -5.027397 0.062483 -2.922356 0.194183 0.000000 0.000000 0.000000 -5.141753 3.684304 1.777718 2.075733 5.210242 3.389404 0.160646 -11.323336 -6.303276 0.000000 0.000000 0.000000 2.020306 -5.701899 -3.771844 1.348684 4.243537 2.175703 1.583707 -2.368281 0.403003 0.000000 0.000000 0.000000 0.073007 -5.862351 0.661069 0.217017 2.420308 -2.245932 0.127953 1.873064 -0.547204 0.000000 0.000000 0.000000 
-782.835632 -88.926170 1073.350952 0.144126 2.947651 2.919107 -0.740015 -3.228777 -0.680008 -0.928880 0.713529 0.104601 -0.853665 -0.868498 -0.016678 -1.366416 -1.920108 7.235107 0.000000 0.000000 0.000000 0.790363 2.692321 1.572182 -0.524345 2.610962 -6.427312 0.197651 -6.833208 1.251571 0.000000 0.000000 0.000000 -5.746854 3.758694 2.740029 3.110261 5.609805 5.110636 0.376231 -16.857325 -10.981352 0.000000 0.000000 0.000000 2.079804 -5.960859 -4.083181 1.327485 6.620926 2.262720 1.644907 -2.291507 0.441173 0.000000 0.000000 0.000000 0.383442 -6.937259 0.335755 0.417242 6.368657 -2.472848 0.364392 1.269850 -0.238389 0.000000 0.000000 0.000000 
-774.570679 -87.776291 1077.654053 -0.051272 2.329812 3.054950 -0.777093 -2.479385 -0.199118 -0.944604 0.730081 -0.111402 -0.857327 -0.850818 0.104237 -1.413236 -1.886737 7.436502 0.000000 0.000000 0.000000 0.945717 2.597763 1.068162 -0.697627 2.511686 -8.083773 0.329270 -10.611745 1.961030 0.000000 0.000000 0.000000 -6.206400 3.724000 3.565775 4.337565 5.881312 7.065083 0.813698 -22.487568 -15.584911 0.000000 0.000000 0.000000 2.196506 -6.232448 -4.258411 1.376827 9.081873 2.265442 1.775454 -1.849859 0.563521 0.000000 0.000000 0.000000 0.644652 -7.790371 0.097110 0.563968 9.959275 -2.524559 0.570320 1.363153 -0.171598 0.000000 0.000000 0.000000 
